<svg width="37" height="45" fill="none" xmlns="http://www.w3.org/2000/svg"><path d="M14.76 0C-.55 0-3.71 21.688 7.073 32.563 13.21 38.75 17.858 45 25.544 45c9.235 0 10.784-7.813 10.784-21.75C36.328 9.312 28.581 0 14.759 0z" fill="#FEED5A"/><path d="M7.878 24.813c1.301 0 2.293-1.063 2.293-2.313a2.297 2.297 0 00-2.293-2.313c-1.302 0-2.293 1.063-2.293 2.313-.062 1.25.991 2.313 2.293 2.313zM26.35 24.813c1.302 0 2.294-1.063 2.294-2.313a2.297 2.297 0 00-2.293-2.313c-1.302 0-2.294 1.063-2.294 2.313-.062 1.25.992 2.313 2.294 2.313z" fill="#00234B"/><path d="M27.155 33.063c-2.975 1.687-6.383 2.624-10.04 2.624-2.231 0-4.339-.374-6.322-1L27.032 10.5c.061-.125.123-.25.123-.375V7.812H7.076v3.125h15.742S7.198 34.25 7.198 34.314c-.062.124-.124.25-.124.374v2.001a25.306 25.306 0 0010.04 2.062c4.215 0 8.12-1.063 11.529-3l-1.488-2.688z" fill="#00234B"/></svg>